<?xml version="1.0" encoding="UTF-8" standalone="no"?>
<!-- Generator: Adobe Illustrator 27.2.0, SVG Export Plug-In . SVG Version: 6.00 Build 0)  -->

<svg
   version="1.1"
   id="Calque_1"
   x="0px"
   y="0px"
   viewBox="0 0 1013.3767 263.92096"
   xml:space="preserve"
   sodipodi:docname="eazyway.svg"
   width="1013.3767"
   height="263.92096"
   inkscape:version="1.1.2 (0a00cf5339, 2022-02-04)"
   xmlns:inkscape="http://www.inkscape.org/namespaces/inkscape"
   xmlns:sodipodi="http://sodipodi.sourceforge.net/DTD/sodipodi-0.dtd"
   xmlns="http://www.w3.org/2000/svg"
   xmlns:svg="http://www.w3.org/2000/svg"><defs
   id="defs49" /><sodipodi:namedview
   id="namedview47"
   pagecolor="#ffffff"
   bordercolor="#666666"
   borderopacity="1.0"
   inkscape:pageshadow="2"
   inkscape:pageopacity="0.0"
   inkscape:pagecheckerboard="0"
   showgrid="false"
   fit-margin-top="0"
   fit-margin-left="0"
   fit-margin-right="0"
   fit-margin-bottom="0"
   inkscape:zoom="0.55740741"
   inkscape:cx="508.60465"
   inkscape:cy="167.74086"
   inkscape:window-width="1920"
   inkscape:window-height="1016"
   inkscape:window-x="0"
   inkscape:window-y="0"
   inkscape:window-maximized="1"
   inkscape:current-layer="Calque_1" />
<style
   type="text/css"
   id="style2">
	.st0{fill:#1D1D1B;}
	.st1{fill:#FFFFFF;}
	.st2{fill:#571CB5;}
	.st3{fill:#FFAC05;}
	.st4{fill:#FE0278;}
	.st5{fill:#646464;}
	.st6{fill:#BEBEBE;}
	.st7{fill:#999999;}
	.st8{fill:#4D4D4D;}
</style>
<g
   id="g44"
   transform="translate(-452.95331,-372.19632)">
	<g
   id="g12">
		<path
   class="st2"
   d="m 477.66,535.44 c 20.64,11.28 39.01,26.56 56.44,41.74 1,0.82 2.95,2.48 3.96,3.28 9.25,7.36 19.04,16.01 29.02,21.44 10.3,5.67 20.7,8.09 31.84,4.78 8.29,-2.34 16.37,-7.21 22.72,-13.22 30.25,-30.36 45.02,-102.06 45.43,-144.26 0.82,-18.91 27.96,-18.79 28.45,0.3 -1.34,48.17 -16.26,115.8 -46.1,154.5 -13.63,17.25 -34.09,30.02 -56.4,31.92 -13.56,1.18 -28.07,-3.06 -39.36,-9.33 -11,-5.95 -19.78,-13.15 -29,-20.56 -8.59,-6.63 -17.41,-14.46 -25.56,-20.99 -10.4,-8.26 -22.06,-15.93 -34.68,-19.91 -8.62,-2.7 -13.42,-11.89 -10.71,-20.51 2.98,-9.96 15.07,-14.55 23.95,-9.18 z"
   id="path4" />
		<path
   class="st2"
   d="m 545.28,543.89 c -8.73,-16.7 -18.1,-33.09 -28.18,-48.98 -9.96,-15.81 -21.36,-29.56 -33.76,-43.69 -6.22,-7.14 -5.48,-17.97 1.66,-24.19 7.55,-6.66 19.45,-5.24 25.24,2.98 11.44,15.9 22.92,33.08 31.72,50.77 2.01,3.86 4.57,9.3 6.48,13.23 6.31,13.21 12.19,26.72 17.66,40.24 5.02,13.67 -13.68,22.29 -20.82,9.64 z"
   id="path6" />
		<path
   class="st3"
   d="m 611.04,518.82 c -3.04,-28.89 -4.66,-57.55 -5.87,-86.46 -0.38,-9.63 -0.72,-19.15 -0.87,-29 -0.15,-9.47 7.41,-17.26 16.88,-17.41 9.47,-0.15 17.26,7.41 17.41,16.88 -0.61,9.8 -1.48,19.81 -2.01,29.82 -0.56,9.43 -1.04,18.87 -1.45,28.31 -0.81,18.9 -1.33,37.81 -1.19,56.56 0.05,6.34 -5.06,11.52 -11.4,11.57 -5.93,0.04 -10.86,-4.49 -11.5,-10.27 z"
   id="path8" />
		<path
   class="st4"
   d="m 572.42,518.26 c -6.28,-31.26 -15.03,-62.01 -24.73,-92.4 -3.31,-10.16 -6.84,-20.26 -10.71,-30.27 -3.42,-8.85 0.97,-18.79 9.82,-22.22 9.69,-3.85 20.84,2.16 22.98,12.36 5.84,26.57 12.99,52.81 18.74,79.41 3.58,16.01 6.81,32.05 9.74,48.22 2.4,17.1 -21.79,21.73 -25.84,4.9 z"
   id="path10" />
	</g>
	<g
   id="g42">
		<g
   id="g22">
			<path
   class="st2"
   d="m 823.04,551.99 -65.71,-0.13 c 2.6,10.3 10.83,16.31 22.43,16.33 8.99,0.02 17.61,-4.08 23.05,-10.25 l 14.2,14.44 c -8.26,11.03 -23.44,17.55 -38.79,17.52 -26.96,-0.05 -46.58,-19 -46.52,-45.96 0.06,-28.27 21.62,-46.01 46.52,-45.96 25.09,0.05 45.46,17.88 45.4,44.65 0,2.43 -0.19,5.43 -0.58,9.36 z m -24.12,-15.96 c -0.73,-10.3 -9.14,-16.87 -20.19,-16.89 -10.11,-0.02 -18.73,5.02 -21.38,16.81 z"
   id="path14" />
			<path
   class="st2"
   d="m 908.32,500.49 24.52,0.05 -0.17,87.43 -24.52,-0.05 0.03,-12.54 c -5.82,8.97 -17.07,14.76 -28.86,14.73 -24.15,-0.05 -42.09,-18.8 -42.03,-45.95 0.05,-27.15 17.69,-46.02 42.77,-45.97 11.23,0.02 22.46,4.91 28.24,13.91 z m -0.83,43.8 c 0.03,-13.29 -10.62,-23.24 -22.79,-23.26 -12.73,-0.02 -22.3,10.44 -22.32,23.17 -0.02,12.17 9.5,23.05 22.42,23.07 12.35,0.03 22.66,-10.43 22.69,-22.98 z"
   id="path16" />
			<path
   class="st2"
   d="m 1031.32,500.73 -0.04,18.72 -43.71,45.78 43.62,0.09 -0.04,22.84 -78.63,-0.16 0.04,-18.53 42.77,-45.97 -40.06,-0.08 0.04,-22.84 z"
   id="path18" />
			<path
   class="st2"
   d="m 1088.5,551.39 20.13,-50.51 26.4,0.05 -54.17,130.19 h -26.23 l 20.9,-51.12 z"
   id="path20" />
		</g>
		<path
   class="st4"
   d="m 1180.47,532.38 -17.89,57.89 -21.41,-0.04 11.54,-34.77 17.12,-54.45 21.03,0.04 z m 27.29,23.19 16.93,-54.45 27.15,0.05 -31.72,89.21 -21.41,-0.04 z"
   id="path24" />
		<path
   class="st4"
   d="m 1331.56,501.33 25.04,0.05 -0.18,89.27 -25.04,-0.05 0.02,-12.81 c -5.94,9.16 -17.42,15.07 -29.47,15.04 -24.66,-0.05 -42.97,-19.2 -42.92,-46.92 0.05,-27.72 18.06,-46.99 43.68,-46.94 11.47,0.02 22.93,5.01 28.84,14.2 z m -0.86,44.73 c 0.03,-13.57 -10.85,-23.73 -23.28,-23.75 -13,-0.03 -22.77,10.66 -22.79,23.66 -0.02,12.43 9.7,23.53 22.89,23.56 12.62,0.03 23.16,-10.66 23.18,-23.47 z"
   id="path26" />
		<path
   class="st4"
   d="m 1418.82,553.12 20.56,-51.57 26.95,0.05 -53.91,129.53 h -26.78 l 19.94,-48.78 z"
   id="path28" />
		<g
   id="g32">
			<path
   class="st3"
   d="m 1075.53,580.01 -34.48,-79.26 26.96,0.05 20.49,50.59 z"
   id="path30" />
		</g>
		<g
   id="g38">
			<path
   class="st3"
   d="m 1198.71,590.34 -18.24,-57.96 -10.64,-31.37 21.03,0.04 16.91,54.51 z"
   id="path34" />
			<path
   class="st3"
   d="m 1405.57,582.34 -35.21,-80.93 27.53,0.05 20.93,51.65 z"
   id="path36" />
		</g>
		<path
   class="st3"
   d="m 1141.17,590.23 -32.32,-89.34 27.14,0.05 16.71,54.51 z"
   id="path40" />
	</g>
</g>
</svg>
